<svg version="1.1" id="Layer_1" xmlns="http://www.w3.org/2000/svg" xmlns:xlink="http://www.w3.org/1999/xlink" x="0px" y="0px"
	 width="100%" viewBox="0 0 300 150" enable-background="new 0 0 300 150" xml:space="preserve">
<path fill="#000000" opacity="1.000000" stroke="none" 
	d="
M198.000000,151.000000 
	C132.000015,151.000000 66.500015,151.000000 1.000018,151.000000 
	C1.000012,101.000015 1.000012,51.000027 1.000006,1.000031 
	C100.999969,1.000021 200.999939,1.000021 300.999939,1.000010 
	C300.999939,50.999969 300.999939,100.999939 300.999969,150.999954 
	C266.833344,151.000000 232.666672,151.000000 198.000000,151.000000 
M138.866425,85.984550 
	C140.913712,85.878105 142.961014,85.771652 145.008301,85.665207 
	C144.993759,85.235329 144.979202,84.805458 144.964661,84.375580 
	C143.775665,84.137825 142.586670,83.900063 141.110352,83.604851 
	C142.641800,83.086647 143.863327,82.673309 146.356888,81.829559 
	C143.873001,81.176857 142.738266,80.878677 141.250992,80.487854 
	C142.846222,79.969528 143.978485,79.601631 145.110764,79.233734 
	C145.020233,78.878044 144.929718,78.522354 144.839188,78.166664 
	C142.559296,78.166664 140.279419,78.166664 137.227310,78.015724 
	C131.985977,79.292603 126.687767,77.085686 121.145020,78.306686 
	C121.041870,79.699371 120.934418,81.150093 120.826965,82.600815 
	C120.508797,82.627861 120.190620,82.654907 119.872444,82.681961 
	C119.400597,81.118607 118.928749,79.555260 118.396164,77.790703 
	C113.341118,78.776794 108.475357,79.725960 102.259048,80.938568 
	C104.723541,80.095253 105.876709,79.700653 107.029884,79.306053 
	C106.985947,79.018509 106.942001,78.730965 106.898064,78.443420 
	C104.663330,78.443420 102.428604,78.443420 100.307800,78.443420 
	C100.307800,81.055901 100.307800,83.467255 100.307800,85.472870 
	C102.749107,85.472870 104.863602,85.472870 106.978088,85.472870 
	C106.989311,85.174217 107.000542,84.875572 107.011772,84.576920 
	C105.895256,84.255836 104.778748,83.934761 103.662231,83.613678 
	C114.825195,88.780655 126.630783,84.344353 138.866425,85.984550 
M195.859634,70.985168 
	C197.467850,70.985168 199.076050,70.985168 200.781082,70.985168 
	C201.882355,63.628365 196.025101,67.042168 192.997787,65.463425 
	C192.997787,62.912430 193.234772,60.120834 192.860123,57.413895 
	C192.740463,56.549461 190.998978,55.909496 189.102158,55.014893 
	C182.320282,53.766514 177.632141,55.487991 177.697815,63.952503 
	C174.803513,54.209217 176.753021,54.307339 169.114197,55.671856 
	C169.766830,59.133461 170.419464,62.594971 170.154663,66.006325 
	C167.887558,66.006325 165.620453,66.006325 162.972916,66.006325 
	C162.972916,62.169003 162.972916,58.763828 162.972916,55.193703 
	C160.854355,55.193703 159.126205,55.193703 157.358612,55.193703 
	C157.358612,60.568714 157.358612,65.743950 157.358612,70.694061 
	C162.122787,70.694061 166.521362,70.694061 170.936996,70.694061 
	C170.936996,68.899269 170.936996,67.410217 171.701904,66.216217 
	C172.511292,71.526192 172.511292,71.526192 182.557632,70.718658 
	C183.523605,66.973587 184.489578,63.228516 185.455536,59.483440 
	C185.701202,59.515541 185.946854,59.547638 186.192505,59.579735 
	C186.192505,63.331467 186.192505,67.083199 186.192505,70.833618 
	C189.392685,70.833618 192.196030,70.833618 195.859634,70.985168 
M118.842392,70.984138 
	C124.170242,70.204849 129.566849,70.673721 135.993423,70.884659 
	C131.676468,65.995110 128.583206,61.885948 133.736374,57.968487 
	C135.962128,59.039936 137.775940,59.913074 140.117340,61.040195 
	C140.117340,63.895844 140.117340,67.328316 140.117340,70.741196 
	C142.244400,70.741196 143.979645,70.741196 145.954895,70.741196 
	C145.954895,67.199242 145.954895,63.910793 145.954895,60.192020 
	C150.161850,60.626133 150.704544,58.504173 149.535843,55.000919 
	C143.045395,55.000919 136.576691,54.921135 130.112915,55.064339 
	C128.723724,55.095116 127.336540,56.357430 125.976189,56.306778 
	C123.307556,56.207417 120.658440,55.583683 117.118912,55.023487 
	C115.164345,55.023487 113.209778,55.023487 110.926743,55.023487 
	C110.926743,57.106392 110.926743,58.795090 110.926743,61.468361 
	C108.166351,56.782181 105.583389,53.412514 100.200623,55.472599 
	C100.200623,60.492409 100.200623,65.568222 100.200623,70.821671 
	C102.154305,70.821671 103.905769,70.821671 105.751953,70.821671 
	C105.944168,68.900177 106.121857,67.123940 106.455147,63.792202 
	C108.995239,70.433388 112.871628,71.937164 118.842392,70.984138 
M71.050018,108.200333 
	C70.804878,109.362549 70.559738,110.524757 70.314598,111.686974 
	C76.503883,105.134666 78.156433,96.912865 80.348152,88.485168 
	C81.122200,94.316582 81.896248,100.147987 82.670288,105.979401 
	C83.167488,105.995865 83.664680,106.012337 84.161880,106.028801 
	C84.299553,100.714584 85.242928,95.265175 84.379372,90.118973 
	C83.189445,83.027885 80.845253,76.096962 78.598862,69.227127 
	C76.743919,63.554401 74.302490,58.074089 72.147209,52.498363 
	C71.753426,51.479641 71.325676,50.432156 71.191933,49.363129 
	C70.866524,46.762032 70.704620,44.140476 70.476860,41.527161 
	C65.075066,49.233150 64.080978,49.308140 56.517715,42.633923 
	C52.118080,47.538555 59.206028,51.008343 57.765209,55.136299 
	C60.279682,53.807632 62.701923,52.527702 64.587860,51.531158 
	C66.318207,55.234055 67.572929,57.919128 68.994286,60.960800 
	C64.754936,60.234543 63.799309,62.742046 63.683033,66.124001 
	C63.523808,70.754982 63.133915,75.384033 63.162399,80.011948 
	C63.171288,81.455345 64.214828,82.892380 64.784729,84.332329 
	C64.417465,84.470932 64.050201,84.609528 63.682938,84.748123 
	C62.322212,82.909088 60.961483,81.070061 59.600754,79.231026 
	C59.062000,79.415596 58.523247,79.600174 57.984489,79.784744 
	C58.323895,82.384331 58.400459,85.060898 59.128571,87.546631 
	C59.431301,88.580154 61.259655,89.990692 62.153637,89.836319 
	C63.535286,89.597740 64.966484,88.361732 65.891357,87.171593 
	C66.621681,86.231804 66.562248,84.705399 66.957138,83.472702 
	C68.077019,79.976875 69.250023,76.498070 70.402100,73.012558 
	C70.834007,73.161087 71.265907,73.309624 71.697815,73.458160 
	C73.252129,84.790283 74.291023,96.116539 71.050018,108.200333 
M178.605148,85.065117 
	C179.895096,85.420319 181.185043,85.775513 181.480576,85.856888 
	C182.305939,83.418549 182.903687,81.652626 183.819977,78.945656 
	C184.999893,82.302841 185.644562,84.137146 186.289261,85.971451 
	C187.164078,84.053093 188.038910,82.134735 188.815552,80.431664 
	C190.510742,81.508469 192.399109,82.707977 193.967010,83.703918 
	C192.980423,83.928726 191.455597,84.276176 189.930756,84.623627 
	C189.999771,84.970177 190.068771,85.316727 190.137787,85.663277 
	C192.651031,85.663277 195.164276,85.663277 197.821625,85.663277 
	C197.821625,84.142807 197.821625,82.708435 197.821625,81.268982 
	C196.582809,81.063057 195.515594,80.885658 194.104401,80.651077 
	C195.674362,80.072517 196.867767,79.632721 199.089691,78.813904 
	C184.745758,78.813904 171.612244,78.813904 158.189514,78.813904 
	C158.088943,79.233421 157.841873,80.264000 157.337936,82.366188 
	C157.037888,79.850517 156.873199,78.469688 156.733887,77.301651 
	C153.882675,77.301651 151.473465,77.301651 149.403320,77.301651 
	C149.403320,80.258263 149.403320,82.912804 149.403320,85.998825 
	C151.111328,85.998825 153.079544,86.091278 155.035004,85.972870 
	C156.998062,85.854004 160.178650,86.162704 160.689713,85.176811 
	C162.813080,81.080582 164.261398,82.492584 166.592957,84.860336 
	C167.527420,85.809334 169.570251,85.772034 171.135529,85.963058 
	C172.505081,86.130203 173.944290,86.165863 175.292267,85.923409 
	C176.271011,85.747375 177.151047,85.022636 178.605148,85.065117 
M230.534317,84.363487 
	C231.572632,84.908745 232.953873,86.183502 233.594330,85.882431 
	C238.202805,83.715988 244.190460,89.315681 248.160065,83.127174 
	C248.942932,81.906738 251.403259,81.762306 253.402924,81.002769 
	C253.581253,81.321785 254.035767,82.162872 254.516922,82.988434 
	C255.101898,83.992111 255.709335,84.982712 256.307068,85.978989 
	C256.958832,85.088371 257.621765,84.205681 258.259918,83.305389 
	C259.431061,81.653236 260.587555,79.990715 261.744751,78.340210 
	C255.684402,78.340210 249.894775,78.340210 244.134430,78.340210 
	C244.012146,80.142563 243.903473,81.744133 243.720398,84.442413 
	C242.719543,81.547684 242.110611,79.786522 241.164093,77.048958 
	C238.876648,78.347481 236.932434,79.451157 235.083435,80.500786 
	C235.061050,80.329285 234.914978,79.210236 234.800400,78.332413 
	C231.917114,78.332413 229.509369,78.332413 227.003662,78.332413 
	C227.003662,80.486473 226.801132,82.348946 227.141495,84.106270 
	C227.230148,84.563942 229.011887,84.693703 230.534317,84.363487 
M208.998840,82.584068 
	C209.515335,83.720215 210.031815,84.856354 210.548309,85.992508 
	C211.767456,85.138390 212.986603,84.284271 214.192108,83.439705 
	C217.126038,88.467827 221.788254,85.142700 225.736679,85.904488 
	C225.838120,85.511673 225.939560,85.118858 226.041016,84.726044 
	C224.843857,84.326973 223.646713,83.927910 222.405212,83.514053 
	C223.663727,83.077095 224.876160,82.656136 227.415222,81.774567 
	C224.822174,81.187103 223.646973,80.920860 222.127350,80.576584 
	C223.660904,80.083603 224.841400,79.704117 226.021896,79.324623 
	C225.929398,78.919952 225.836899,78.515274 225.744400,78.110596 
	C221.824112,78.960617 217.137802,75.287598 214.025208,80.906837 
	C212.144104,77.596184 207.716599,76.888603 201.004608,78.883179 
	C202.032120,79.723373 203.277634,80.346123 203.908356,81.353722 
	C204.774765,82.737869 205.175491,84.413521 205.775757,85.964264 
	C206.212082,84.231819 206.629761,82.494232 207.104401,80.772354 
	C207.177597,80.506790 207.512375,80.313339 208.062744,79.729584 
	C208.426178,80.501656 208.710327,81.105255 208.998840,82.584068 
z"/>
<path fill="#E5EDF6" opacity="1.000000" stroke="none" 
	d="
M71.129074,107.798065 
	C74.291023,96.116539 73.252129,84.790283 71.697815,73.458160 
	C71.265907,73.309624 70.834007,73.161087 70.402100,73.012558 
	C69.250023,76.498070 68.077019,79.976875 66.957138,83.472702 
	C66.562248,84.705399 66.621681,86.231804 65.891357,87.171593 
	C64.966484,88.361732 63.535286,89.597740 62.153637,89.836319 
	C61.259655,89.990692 59.431301,88.580154 59.128571,87.546631 
	C58.400459,85.060898 58.323895,82.384331 57.984489,79.784744 
	C58.523247,79.600174 59.062000,79.415596 59.600754,79.231026 
	C60.961483,81.070061 62.322212,82.909088 63.682938,84.748123 
	C64.050201,84.609528 64.417465,84.470932 64.784729,84.332329 
	C64.214828,82.892380 63.171288,81.455345 63.162399,80.011948 
	C63.133915,75.384033 63.523808,70.754982 63.683033,66.124001 
	C63.799309,62.742046 64.754936,60.234543 68.994286,60.960800 
	C67.572929,57.919128 66.318207,55.234055 64.587860,51.531158 
	C62.701923,52.527702 60.279682,53.807632 57.765209,55.136299 
	C59.206028,51.008343 52.118080,47.538555 56.511429,42.634708 
	C64.080978,49.308140 65.075066,49.233150 70.476860,41.527161 
	C70.704620,44.140476 70.866524,46.762032 71.191933,49.363129 
	C71.325676,50.432156 71.753426,51.479641 72.147209,52.498363 
	C74.302490,58.074089 76.743919,63.554401 78.598862,69.227127 
	C80.845253,76.096962 83.189445,83.027885 84.379372,90.118973 
	C85.242928,95.265175 84.299553,100.714584 84.161880,106.028801 
	C83.664680,106.012337 83.167488,105.995865 82.670288,105.979401 
	C81.896248,100.147987 81.122200,94.316582 80.348152,88.485168 
	C78.156433,96.912865 76.503883,105.134666 70.314598,111.686974 
	C70.559738,110.524757 70.804878,109.362549 71.129074,107.798065 
z"/>
<path fill="#DDE1E9" opacity="1.000000" stroke="none" 
	d="
M118.001251,55.176949 
	C120.658440,55.583683 123.307556,56.207417 125.976189,56.306778 
	C127.336540,56.357430 128.723724,55.095116 130.112915,55.064339 
	C136.576691,54.921135 143.045395,55.000919 149.535843,55.000919 
	C150.704544,58.504173 150.161850,60.626133 145.954895,60.192020 
	C145.954895,63.910793 145.954895,67.199242 145.954895,70.741196 
	C143.979645,70.741196 142.244400,70.741196 140.117340,70.741196 
	C140.117340,67.328316 140.117340,63.895844 140.117340,61.040195 
	C137.775940,59.913074 135.962128,59.039936 133.736374,57.968487 
	C128.583206,61.885948 131.676468,65.995110 135.993423,70.884659 
	C129.566849,70.673721 124.170242,70.204849 118.424133,70.585541 
	C118.014870,69.763008 118.023865,69.339073 118.384094,68.852493 
	C124.358009,61.217083 122.155968,62.368721 118.024429,56.766972 
	C118.011116,56.025005 118.006180,55.600979 118.001251,55.176949 
z"/>
<path fill="#DADEDD" opacity="1.000000" stroke="none" 
	d="
M178.340118,84.803833 
	C177.151047,85.022636 176.271011,85.747375 175.292267,85.923409 
	C173.944290,86.165863 172.505081,86.130203 171.135529,85.963058 
	C169.570251,85.772034 167.527420,85.809334 166.592957,84.860336 
	C164.261398,82.492584 162.813080,81.080582 160.689713,85.176811 
	C160.178650,86.162704 156.998062,85.854004 155.035004,85.972870 
	C153.079544,86.091278 151.111328,85.998825 149.403320,85.998825 
	C149.403320,82.912804 149.403320,80.258263 149.403320,77.301651 
	C151.473465,77.301651 153.882675,77.301651 156.733887,77.301651 
	C156.873199,78.469688 157.037888,79.850517 157.337936,82.366188 
	C157.841873,80.264000 158.088943,79.233421 158.189514,78.813904 
	C171.612244,78.813904 184.745758,78.813904 199.089691,78.813904 
	C196.867767,79.632721 195.674362,80.072517 194.104401,80.651077 
	C195.515594,80.885658 196.582809,81.063057 197.821625,81.268982 
	C197.821625,82.708435 197.821625,84.142807 197.821625,85.663277 
	C195.164276,85.663277 192.651031,85.663277 190.137787,85.663277 
	C190.068771,85.316727 189.999771,84.970177 189.930756,84.623627 
	C191.455597,84.276176 192.980423,83.928726 193.967010,83.703918 
	C192.399109,82.707977 190.510742,81.508469 188.815552,80.431664 
	C188.038910,82.134735 187.164078,84.053093 186.289246,85.971451 
	C185.644562,84.137146 184.999893,82.302841 183.819977,78.945656 
	C182.903687,81.652626 182.305939,83.418549 181.480576,85.856888 
	C181.185043,85.775513 179.895096,85.420319 178.340118,84.803833 
z"/>
<path fill="#DDE1E9" opacity="1.000000" stroke="none" 
	d="
M171.072083,66.056480 
	C170.419464,62.594971 169.766830,59.133461 169.114197,55.671856 
	C176.753021,54.307339 174.803513,54.209217 177.697815,63.952503 
	C177.632141,55.487991 182.320282,53.766514 189.551041,55.532505 
	C189.622375,61.669189 189.767197,67.111618 194.999359,70.833618 
	C192.196030,70.833618 189.392685,70.833618 186.192505,70.833618 
	C186.192505,67.083199 186.192505,63.331467 186.192505,59.579735 
	C185.946854,59.547638 185.701202,59.515541 185.455536,59.483440 
	C184.489578,63.228516 183.523605,66.973587 182.556854,70.715195 
	C172.511292,71.526192 172.511292,71.526192 171.352188,66.103561 
	C171.002472,65.990898 171.072083,66.056480 171.072083,66.056480 
z"/>
<path fill="#DADEDD" opacity="1.000000" stroke="none" 
	d="
M137.999527,85.833244 
	C126.630783,84.344353 114.825195,88.780655 103.662231,83.613678 
	C104.778748,83.934761 105.895256,84.255836 107.011772,84.576920 
	C107.000542,84.875572 106.989311,85.174217 106.978088,85.472870 
	C104.863602,85.472870 102.749107,85.472870 100.307800,85.472870 
	C100.307800,83.467255 100.307800,81.055901 100.307800,78.443420 
	C102.428604,78.443420 104.663330,78.443420 106.898064,78.443420 
	C106.942001,78.730965 106.985947,79.018509 107.029884,79.306053 
	C105.876709,79.700653 104.723541,80.095253 102.259048,80.938568 
	C108.475357,79.725960 113.341118,78.776794 118.396164,77.790703 
	C118.928749,79.555260 119.400597,81.118607 119.872444,82.681961 
	C120.190620,82.654907 120.508797,82.627861 120.826965,82.600815 
	C120.934418,81.150093 121.041870,79.699371 121.145020,78.306686 
	C126.687767,77.085686 131.985977,79.292603 137.613602,78.516739 
	C137.999771,81.289581 137.999649,83.561409 137.999527,85.833244 
z"/>
<path fill="#DDE1E8" opacity="1.000000" stroke="none" 
	d="
M118.032852,68.915131 
	C118.023865,69.339073 118.014870,69.763008 118.003525,70.504974 
	C112.871628,71.937164 108.995239,70.433388 106.455147,63.792202 
	C106.121857,67.123940 105.944168,68.900177 105.751953,70.821671 
	C103.905769,70.821671 102.154305,70.821671 100.200623,70.821671 
	C100.200623,65.568222 100.200623,60.492409 100.200623,55.472599 
	C105.583389,53.412514 108.166351,56.782181 110.926743,61.468361 
	C110.926743,58.795090 110.926743,57.106392 110.926743,55.023487 
	C113.209778,55.023487 115.164345,55.023487 117.560081,55.100220 
	C118.006180,55.600979 118.011116,56.025005 118.002304,57.220531 
	C118.003326,61.633060 118.018089,65.274094 118.032852,68.915131 
z"/>
<path fill="#DADEDD" opacity="1.000000" stroke="none" 
	d="
M230.275162,84.668777 
	C229.011887,84.693703 227.230148,84.563942 227.141495,84.106270 
	C226.801132,82.348946 227.003662,80.486473 227.003662,78.332413 
	C229.509369,78.332413 231.917114,78.332413 234.800400,78.332413 
	C234.914978,79.210236 235.061050,80.329285 235.083435,80.500786 
	C236.932434,79.451157 238.876648,78.347481 241.164093,77.048958 
	C242.110611,79.786522 242.719543,81.547684 243.720398,84.442413 
	C243.903473,81.744133 244.012146,80.142563 244.134430,78.340210 
	C249.894775,78.340210 255.684402,78.340210 261.744751,78.340210 
	C260.587555,79.990715 259.431061,81.653236 258.259918,83.305389 
	C257.621765,84.205681 256.958832,85.088371 256.307068,85.978981 
	C255.709335,84.982712 255.101898,83.992111 254.516922,82.988434 
	C254.035767,82.162872 253.581253,81.321785 253.402924,81.002769 
	C251.403259,81.762306 248.942932,81.906738 248.160065,83.127174 
	C244.190460,89.315681 238.202805,83.715988 233.594330,85.882431 
	C232.953873,86.183502 231.572632,84.908745 230.275162,84.668777 
z"/>
<path fill="#DADEDD" opacity="1.000000" stroke="none" 
	d="
M208.996643,82.146469 
	C208.710327,81.105255 208.426178,80.501656 208.062744,79.729584 
	C207.512375,80.313339 207.177597,80.506790 207.104401,80.772354 
	C206.629761,82.494232 206.212082,84.231819 205.775757,85.964264 
	C205.175491,84.413521 204.774765,82.737869 203.908356,81.353722 
	C203.277634,80.346123 202.032120,79.723373 201.004608,78.883179 
	C207.716599,76.888603 212.144104,77.596184 214.025208,80.906815 
	C217.137802,75.287598 221.824112,78.960617 225.744400,78.110596 
	C225.836899,78.515274 225.929398,78.919952 226.021896,79.324623 
	C224.841400,79.704117 223.660904,80.083603 222.127350,80.576584 
	C223.646973,80.920860 224.822174,81.187103 227.415222,81.774567 
	C224.876160,82.656136 223.663727,83.077095 222.405212,83.514053 
	C223.646713,83.927910 224.843857,84.326973 226.041016,84.726044 
	C225.939560,85.118858 225.838120,85.511673 225.736679,85.904488 
	C221.788254,85.142700 217.126038,88.467827 214.192108,83.439705 
	C212.986603,84.284271 211.767456,85.138390 210.548309,85.992508 
	C210.031815,84.856354 209.515335,83.720215 208.996643,82.146469 
z"/>
<path fill="#DDE1E9" opacity="1.000000" stroke="none" 
	d="
M170.969727,65.956039 
	C170.936996,67.410217 170.936996,68.899269 170.936996,70.694061 
	C166.521362,70.694061 162.122787,70.694061 157.358612,70.694061 
	C157.358612,65.743950 157.358612,60.568714 157.358612,55.193703 
	C159.126205,55.193703 160.854355,55.193703 162.972916,55.193703 
	C162.972916,58.763828 162.972916,62.169003 162.972916,66.006325 
	C165.620453,66.006325 167.887558,66.006325 170.613373,66.031403 
	C171.072083,66.056480 171.002472,65.990898 170.969727,65.956039 
z"/>
<path fill="#DDE1E9" opacity="1.000000" stroke="none" 
	d="
M195.429504,70.909393 
	C189.767197,67.111618 189.622375,61.669189 189.999756,55.608471 
	C190.998978,55.909496 192.740463,56.549461 192.860123,57.413895 
	C193.234772,60.120834 192.997787,62.912430 192.997787,65.463425 
	C196.025101,67.042168 201.882355,63.628365 200.781082,70.985168 
	C199.076050,70.985168 197.467850,70.985168 195.429504,70.909393 
z"/>
<path fill="#DADEDD" opacity="1.000000" stroke="none" 
	d="
M138.432983,85.908897 
	C137.999649,83.561409 137.999771,81.289581 137.999710,78.592209 
	C140.279419,78.166664 142.559296,78.166664 144.839188,78.166664 
	C144.929718,78.522354 145.020233,78.878044 145.110764,79.233734 
	C143.978485,79.601631 142.846222,79.969528 141.250992,80.487854 
	C142.738266,80.878677 143.873001,81.176857 146.356888,81.829559 
	C143.863327,82.673309 142.641800,83.086647 141.110352,83.604851 
	C142.586670,83.900063 143.775665,84.137825 144.964661,84.375580 
	C144.979202,84.805458 144.993759,85.235329 145.008301,85.665207 
	C142.961014,85.771652 140.913712,85.878105 138.432983,85.908897 
z"/>
<path fill="#000000" opacity="1.000000" stroke="none" 
	d="
M118.384094,68.852493 
	C118.018089,65.274094 118.003326,61.633060 118.010696,57.538467 
	C122.155968,62.368721 124.358009,61.217083 118.384094,68.852493 
z"/>
</svg>