<svg version="1.1" id="Layer_1" xmlns="http://www.w3.org/2000/svg" xmlns:xlink="http://www.w3.org/1999/xlink" x="0px" y="0px"
	 width="100%" viewBox="0 0 500 300" enable-background="new 0 0 500 300" xml:space="preserve">
<path fill="#012051" opacity="1.000000" stroke="none" 
	d="
M328.000000,301.000000 
	C218.700668,301.000000 109.901344,301.000000 1.051007,301.000000 
	C1.051007,201.065277 1.051007,101.130508 1.051007,1.097874 
	C167.549301,1.097874 334.098663,1.097874 500.824036,1.097874 
	C500.824036,100.999748 500.824036,200.999847 500.824036,301.000000 
	C443.463898,301.000000 385.981964,301.000000 328.000000,301.000000 
M452.246338,158.095978 
	C447.590332,157.098251 442.934296,156.100525 437.829163,155.006577 
	C437.829163,161.121948 437.829163,165.872574 437.829163,170.716003 
	C439.388977,170.716003 440.787323,170.716003 442.247620,170.716003 
	C442.455078,168.699432 442.633575,166.964172 442.804413,165.303726 
	C452.218567,164.589630 452.558105,164.331360 453.668823,157.686462 
	C456.206665,161.733444 458.744476,165.780426 461.282318,169.827393 
	C460.868683,170.133972 460.455048,170.440536 460.041412,170.747101 
	C461.450989,170.747101 462.860565,170.747101 463.038605,170.747101 
	C465.728516,165.445892 468.047852,160.874985 470.367218,156.304077 
	C470.229187,155.926910 470.091156,155.549744 469.953125,155.172562 
	C467.107361,156.591141 464.261597,158.009720 461.346649,159.462784 
	C457.717499,155.032135 455.414215,154.521286 452.246338,158.095978 
M78.827904,161.524704 
	C79.862045,164.692719 79.302567,167.294785 76.031418,169.398773 
	C73.329544,165.467194 70.763420,161.733154 67.916344,157.590302 
	C64.239426,163.992538 65.290428,169.703262 68.338371,175.082153 
	C70.555992,178.995728 76.296379,179.249573 78.895676,175.556305 
	C80.444641,173.355423 81.985794,170.409760 81.847687,167.891205 
	C81.303482,157.967361 86.442383,150.608902 91.964668,142.686050 
	C97.669975,169.487686 98.603119,195.674118 90.744484,221.840500 
	C101.497337,207.773987 105.373314,191.381882 107.353546,172.876083 
	C113.886627,185.633743 113.978706,198.063385 114.615639,210.425751 
	C115.377502,209.640244 115.808281,208.923218 115.999481,208.147156 
	C120.304359,190.674164 118.021713,173.971222 110.670731,157.646286 
	C108.393593,152.589249 107.092072,146.991928 106.030746,141.509018 
	C103.691635,129.424896 101.841248,117.144341 94.572083,106.831917 
	C91.760468,102.843208 90.962532,99.281380 91.393692,94.470192 
	C91.738220,90.625542 89.742661,86.571190 88.785751,82.609909 
	C83.842361,87.154701 85.374557,94.894531 76.215370,95.244240 
	C67.501831,95.576942 66.877296,88.086830 62.359173,84.326073 
	C59.388752,89.383354 59.228802,94.094879 62.654034,98.920448 
	C65.025482,102.261421 66.304642,105.942421 63.503510,110.115974 
	C65.215797,109.229591 66.249481,107.871086 67.576607,106.923561 
	C70.089668,105.129333 72.574081,102.862762 75.425674,102.069336 
	C80.574921,100.636620 82.409607,102.803757 81.223618,108.116486 
	C80.398506,111.812637 81.219536,114.337730 85.338806,115.075592 
	C86.781883,115.334068 88.180954,115.838242 89.720650,116.263504 
	C88.117477,118.689819 86.595825,120.992760 84.794617,123.718788 
	C83.034790,119.906403 80.988449,121.285133 79.603165,123.386543 
	C78.366737,125.262138 77.285553,127.570442 77.118370,129.762726 
	C76.435242,138.720535 76.004715,147.704391 75.812653,156.685760 
	C75.782692,158.086639 77.471588,159.524277 78.827904,161.524704 
M149.987320,113.642685 
	C149.987320,122.384659 149.987320,131.126633 149.987320,139.687439 
	C153.782211,139.687439 156.870010,139.687439 160.498688,139.687439 
	C160.498688,134.743958 160.498688,130.109009 160.498688,124.337723 
	C163.737381,128.450806 166.645050,131.318268 168.550964,134.743179 
	C172.051453,141.033569 177.246979,140.546371 182.677261,139.618347 
	C182.677261,129.213608 182.677261,119.159485 182.677261,109.336868 
	C179.213760,109.336868 176.130325,109.336868 172.557907,109.336868 
	C172.557907,114.487595 172.557907,119.299271 172.557907,125.129288 
	C169.354706,120.939545 166.500549,117.851875 164.412750,114.312202 
	C161.800842,109.883957 158.367050,108.476349 153.364166,108.858238 
	C150.379974,109.086044 149.618652,110.073242 149.987320,113.642685 
M290.181458,119.367737 
	C292.112854,126.215271 294.044281,133.062805 295.927032,139.737823 
	C301.779022,139.737823 307.221375,139.737823 312.655151,139.737823 
	C315.470734,129.457733 318.216644,119.431984 321.030304,109.158798 
	C317.126526,109.158798 313.674988,109.158798 310.033600,109.158798 
	C308.228394,116.322884 306.451202,123.375755 304.674042,130.428619 
	C304.385101,130.420380 304.096191,130.412140 303.807281,130.403900 
	C302.045532,123.385162 300.283783,116.366440 298.484924,109.199829 
	C294.849915,109.199829 291.408051,109.199829 287.570099,109.199829 
	C288.430664,112.491089 289.223785,115.524460 290.181458,119.367737 
M213.416656,132.010864 
	C211.710556,129.554688 210.004440,127.098526 208.217377,124.525803 
	C211.702271,119.482719 215.140213,114.507568 218.735123,109.305260 
	C211.702393,108.437706 205.399277,107.795151 202.084564,117.081779 
	C198.947327,107.329048 192.501389,108.645828 185.487976,109.321724 
	C189.244873,114.680626 192.709290,119.622330 196.147812,124.527100 
	C192.529282,129.669632 189.140854,134.485138 185.544617,139.595963 
	C192.650757,140.595016 198.946335,141.342468 201.669586,133.515182 
	C204.311050,135.948029 206.200897,138.832703 208.793991,139.768387 
	C211.619720,140.787994 215.097687,139.999954 218.969559,139.999954 
	C216.863068,136.938995 215.363510,134.759979 213.416656,132.010864 
M228.554276,108.980774 
	C225.791077,108.980774 223.027893,108.980774 220.377533,108.980774 
	C220.377533,112.046867 220.377533,114.449867 220.377533,117.321442 
	C223.442841,117.321442 226.180008,117.321442 229.278610,117.321442 
	C229.278610,125.052719 229.278610,132.310242 229.278610,139.700012 
	C232.865219,139.700012 236.068939,139.700012 239.884415,139.700012 
	C239.884415,132.030731 239.884415,124.664978 239.884415,116.801727 
	C243.224152,116.801727 245.941605,116.801727 248.591888,116.801727 
	C248.591888,113.998329 248.591888,111.730629 248.591888,108.980774 
	C242.089401,108.980774 235.815903,108.980774 228.554276,108.980774 
M263.990723,115.587250 
	C263.990723,123.657188 263.990723,131.727127 263.990723,139.735413 
	C273.057709,139.735413 281.465851,139.735413 289.906158,139.735413 
	C289.906158,137.067535 289.906158,134.673080 289.906158,131.753265 
	C284.581512,131.753265 279.531647,131.753265 274.135834,131.753265 
	C274.135834,123.973595 274.135834,116.723549 274.135834,109.338242 
	C270.569824,109.338242 267.380524,109.338242 263.990723,109.338242 
	C263.990723,111.321228 263.990723,112.967781 263.990723,115.587250 
M325.703583,139.998001 
	C333.461090,139.998001 341.218567,139.998001 348.860107,139.998001 
	C348.860107,136.994949 348.860107,134.595215 348.860107,131.671753 
	C343.490784,131.671753 338.444702,131.671753 333.050110,131.671753 
	C333.050110,123.885063 333.050110,116.637375 333.050110,109.201920 
	C329.602142,109.201920 326.528320,109.201920 323.002167,109.201920 
	C323.002167,118.988564 322.970367,128.580017 323.076721,138.169952 
	C323.083527,138.782166 324.161682,139.382523 325.703583,139.998001 
M255.283676,171.020996 
	C259.148590,171.221725 262.614014,170.394440 262.878174,165.822021 
	C263.274597,158.958969 257.241089,160.543839 252.803177,159.354477 
	C262.349213,157.009598 262.349213,157.009598 261.744812,154.013641 
	C258.625610,154.013641 255.289185,153.386536 252.377716,154.228638 
	C250.352737,154.814346 247.934662,157.178375 247.443283,159.178223 
	C246.742172,162.031647 248.922180,164.067657 252.123764,164.361465 
	C253.711014,164.507126 255.293121,164.708572 256.877563,164.884781 
	C247.754150,168.146103 247.754150,168.146103 248.023193,171.021194 
	C250.122757,171.021194 252.261002,171.021194 255.283676,171.020996 
M211.516983,166.075867 
	C213.031647,164.993988 213.058716,164.971039 214.499420,166.670776 
	C216.682022,169.245819 218.499649,172.574890 222.761963,170.538971 
	C222.761963,165.643112 222.761963,160.895187 222.761963,155.887192 
	C221.033325,156.055801 219.617325,156.193924 218.267365,156.325592 
	C218.094330,158.700516 217.947983,160.708878 217.785736,162.935638 
	C213.839371,160.563812 213.074081,153.997559 206.855469,156.444397 
	C206.855469,161.175797 206.855469,165.923828 206.855469,171.007935 
	C208.501022,170.897186 209.881180,170.804306 211.501205,170.695267 
	C211.501205,169.157669 211.501205,168.008606 211.516983,166.075867 
M408.115723,169.889877 
	C408.229980,168.323959 408.344269,166.758041 408.458527,165.192123 
	C408.860962,165.050125 409.263428,164.908142 409.665863,164.766159 
	C410.615875,166.272827 411.289948,168.111145 412.592163,169.194473 
	C413.939606,170.315369 415.896576,170.703537 416.515930,170.963196 
	C417.163391,167.443024 417.529877,164.771469 418.164764,162.165329 
	C419.017456,158.665237 417.668793,156.470932 414.253571,156.125534 
	C410.704803,155.766632 407.091553,156.045563 403.394928,156.045563 
	C403.394928,161.287720 403.394928,165.894272 403.394928,170.999771 
	C405.024139,170.885162 406.437592,170.785736 408.115723,169.889877 
M401.154419,169.475769 
	C400.274994,168.665207 399.507843,167.389832 398.491913,167.144470 
	C396.594330,166.686172 394.552368,166.825958 392.570465,166.716888 
	C392.575348,166.228836 392.580200,165.740768 392.585052,165.252716 
	C395.374329,165.120270 398.163605,164.987823 401.173737,164.844894 
	C401.032684,163.366043 400.928650,162.275375 400.827545,161.215042 
	C398.262299,161.069611 395.950684,160.938553 393.639038,160.807510 
	C393.652161,160.502502 393.665253,160.197510 393.678375,159.892517 
	C396.074554,159.892517 398.470734,159.892517 401.110657,159.892517 
	C401.024261,158.319717 400.964569,157.232742 400.909576,156.231522 
	C396.341736,156.231522 392.077911,156.231522 387.643738,156.231522 
	C387.643738,161.225800 387.643738,165.960663 387.643738,171.334351 
	C392.343048,170.968430 396.707642,170.628571 401.154419,169.475769 
M164.942612,161.902939 
	C165.013138,169.814896 168.412994,171.821732 179.222275,170.684448 
	C178.761658,165.283340 181.921127,157.993759 173.380478,156.152237 
	C169.422180,155.298752 166.775330,157.643341 164.942612,161.902939 
M309.708008,171.012650 
	C310.742340,170.895294 311.776672,170.777939 313.007202,170.638321 
	C312.081696,168.626190 311.328918,166.989624 310.606476,165.418961 
	C314.401154,160.426392 313.746887,156.633530 308.927399,156.109024 
	C305.398376,155.724976 301.793976,156.033798 298.353271,156.033798 
	C298.353271,161.422760 298.353271,166.147903 298.353271,171.115601 
	C300.115814,170.954315 301.525604,170.825302 302.828094,170.706100 
	C303.008270,168.593750 303.154999,166.873627 303.433228,163.611359 
	C305.823181,166.821960 307.370300,168.900314 309.708008,171.012650 
M295.492371,166.594284 
	C296.835358,163.111694 296.390991,159.719269 293.195862,157.844757 
	C291.203857,156.676102 287.748505,155.925476 286.025299,156.896240 
	C283.831635,158.132034 281.463196,161.320206 281.504089,163.625305 
	C281.545227,165.943344 283.982727,169.001831 286.208496,170.317078 
	C289.662628,172.358185 292.841431,170.461334 295.492371,166.594284 
M158.580536,165.015915 
	C163.061676,164.863052 163.061676,164.863052 162.228867,161.198334 
	C159.748489,161.078568 157.263016,160.958572 154.811737,160.840225 
	C156.824188,157.922150 162.764694,163.044449 162.982697,156.311218 
	C158.175995,156.311218 153.789459,156.311218 149.449280,156.311218 
	C149.449280,161.361603 149.449280,166.078934 149.449280,170.811340 
	C154.082169,170.811340 158.360504,170.811340 162.638855,170.811340 
	C162.909897,170.396881 163.180954,169.982407 163.452011,169.567947 
	C162.333817,168.730576 161.322891,167.473480 160.072372,167.153931 
	C158.182144,166.670929 156.124954,166.841339 154.138702,166.734085 
	C154.144897,166.321198 154.151077,165.908310 154.157257,165.495422 
	C155.331879,165.335663 156.506500,165.175919 158.580536,165.015915 
M237.263199,165.004410 
	C237.958405,163.972839 238.653595,162.941269 239.970673,160.986908 
	C235.897781,160.986908 233.307266,160.986908 230.349197,160.986908 
	C232.754364,158.171967 238.695511,162.764297 239.181870,156.379898 
	C234.022659,156.379898 229.647949,156.379898 225.343414,156.379898 
	C225.343414,161.373398 225.343414,165.968704 225.343414,170.761719 
	C229.992508,170.761719 234.393234,170.761719 239.025970,170.761719 
	C238.913239,163.546829 231.840271,169.646469 229.845657,165.013916 
	C232.273285,165.013916 234.319199,165.013916 237.263199,165.004410 
M431.648224,156.463654 
	C429.207428,156.256393 426.766632,156.049118 424.060730,155.819336 
	C422.436157,160.933090 420.910309,165.736053 419.550049,170.017776 
	C425.228516,170.017776 430.599213,170.017776 436.044708,170.017776 
	C434.778107,166.040436 433.374847,161.634094 431.648224,156.463654 
M368.218384,168.147034 
	C368.075348,172.277405 370.739868,170.843903 372.899994,170.819107 
	C373.131256,168.749069 373.326630,167.000092 373.522156,165.249863 
	C375.756042,165.249863 377.689240,165.249863 379.850250,165.249863 
	C379.958221,167.213516 380.054504,168.964050 380.150940,170.717728 
	C381.906189,170.717728 383.295105,170.717728 384.690155,170.717728 
	C384.690155,165.663467 384.690155,160.911667 384.690155,155.894394 
	C382.953857,156.048584 381.539612,156.174179 380.254639,156.288300 
	C380.005554,158.089798 379.809570,159.507401 379.638519,160.744537 
	C377.362305,160.744537 375.435425,160.744537 373.412781,160.744537 
	C373.230255,159.044281 373.078644,157.631790 372.893829,155.910248 
	C371.174011,156.083969 369.800812,156.222672 368.216339,156.382721 
	C368.216339,160.258591 368.216339,163.741394 368.218384,168.147034 
M336.363586,160.031281 
	C337.854736,160.009842 339.348755,159.919815 340.836487,159.981033 
	C344.067719,160.114029 344.444092,158.672729 343.221313,156.070099 
	C340.064484,156.070099 336.931854,155.507690 334.172058,156.279129 
	C332.492371,156.748627 330.555298,159.163498 330.319641,160.917542 
	C330.164581,162.071899 332.642975,163.957825 334.299835,164.857117 
	C335.603790,165.564896 337.454498,165.265411 339.062347,165.413330 
	C339.026276,165.956329 338.990204,166.499329 338.954163,167.042328 
	C337.086792,167.042328 335.217163,166.984344 333.352539,167.055542 
	C330.349579,167.170242 330.350952,167.206253 330.757172,170.964371 
	C333.689514,170.964371 336.821503,171.550552 339.556763,170.761490 
	C341.428619,170.221512 343.905884,167.818176 343.981628,166.151062 
	C344.054413,164.549026 341.575958,162.572800 339.846710,161.245560 
	C338.835419,160.469376 337.096100,160.641708 336.363586,160.031281 
M192.047607,164.379349 
	C190.984924,165.138336 189.922241,165.897308 188.859558,166.656296 
	C188.201691,165.612381 187.108887,164.620911 186.975327,163.513763 
	C186.685532,161.111252 186.885971,158.649597 186.885971,155.870224 
	C184.784973,156.057800 183.394669,156.181931 181.775574,156.326492 
	C182.513412,161.276459 179.766083,166.988083 185.223648,169.790558 
	C187.600433,171.011017 191.830246,170.941788 194.097824,169.585159 
	C199.205414,166.529449 196.632935,161.007645 197.080643,156.265198 
	C195.331711,156.265198 193.947998,156.265198 192.137894,156.265198 
	C192.137894,158.833374 192.137894,161.134598 192.047607,164.379349 
M279.771393,158.892593 
	C275.693146,153.350250 270.098816,157.156250 265.122711,155.852539 
	C265.122711,161.254883 265.122711,165.974030 265.122711,171.001770 
	C266.770233,170.903046 268.152313,170.820221 269.594635,170.733795 
	C269.795776,168.664612 269.963776,166.936661 270.126648,165.261581 
	C274.271545,164.451309 279.870148,166.747849 279.771393,158.892593 
M364.205414,155.980576 
	C360.280945,155.980576 356.356476,155.980576 352.432007,155.980576 
	C352.196472,156.559906 351.960907,157.139252 351.725342,157.718582 
	C353.339844,158.801178 354.954346,159.883774 357.269409,161.436127 
	C357.269409,163.961700 357.269409,167.370590 357.269409,171.083740 
	C359.134888,170.934250 360.518066,170.823410 362.150024,170.692642 
	C362.150024,167.050552 362.150024,163.775314 362.150024,160.386459 
	C363.899963,160.040573 365.413879,159.741318 367.996948,159.230743 
	C366.676361,157.737823 365.902893,156.863434 364.205414,155.980576 
M324.082397,163.687790 
	C324.004791,161.660629 323.741455,159.717484 326.932953,159.798279 
	C327.728943,159.818405 328.573822,157.907700 329.915222,156.238647 
	C323.764557,156.238647 319.181732,156.238647 314.598938,156.238647 
	C314.339722,156.709732 314.080475,157.180817 313.821259,157.651917 
	C315.489899,158.783569 317.158539,159.915222 319.280029,161.354004 
	C319.280029,164.072372 319.280029,167.337494 319.280029,170.751266 
	C320.983246,170.751266 322.362488,170.751266 324.082245,170.751266 
	C324.082245,168.533997 324.082245,166.573914 324.082397,163.687790 
M204.193680,159.898148 
	C204.115265,158.656464 204.036850,157.414780 203.957260,156.154694 
	C202.249161,156.154694 200.963791,156.154694 199.437378,156.154694 
	C199.437378,161.068237 199.437378,165.803467 199.437378,170.782318 
	C201.021606,170.782318 202.437592,170.782318 204.193726,170.782318 
	C204.193726,167.359283 204.193726,164.076263 204.193680,159.898148 
z"/>
<path fill="#EDF2F7" opacity="1.000000" stroke="none" 
	d="
M78.596786,161.234802 
	C77.471588,159.524277 75.782692,158.086639 75.812653,156.685760 
	C76.004715,147.704391 76.435242,138.720535 77.118370,129.762726 
	C77.285553,127.570442 78.366737,125.262138 79.603165,123.386543 
	C80.988449,121.285133 83.034790,119.906403 84.794617,123.718788 
	C86.595825,120.992760 88.117477,118.689819 89.720650,116.263504 
	C88.180954,115.838242 86.781883,115.334068 85.338806,115.075592 
	C81.219536,114.337730 80.398506,111.812637 81.223618,108.116486 
	C82.409607,102.803757 80.574921,100.636620 75.425674,102.069336 
	C72.574081,102.862762 70.089668,105.129333 67.576607,106.923561 
	C66.249481,107.871086 65.215797,109.229591 63.503510,110.115974 
	C66.304642,105.942421 65.025482,102.261421 62.654034,98.920448 
	C59.228802,94.094879 59.388752,89.383354 62.359173,84.326073 
	C66.877296,88.086830 67.501831,95.576942 76.215370,95.244240 
	C85.374557,94.894531 83.842361,87.154701 88.785751,82.609909 
	C89.742661,86.571190 91.738220,90.625542 91.393692,94.470192 
	C90.962532,99.281380 91.760468,102.843208 94.572083,106.831917 
	C101.841248,117.144341 103.691635,129.424896 106.030746,141.509018 
	C107.092072,146.991928 108.393593,152.589249 110.670731,157.646286 
	C118.021713,173.971222 120.304359,190.674164 115.999481,208.147156 
	C115.808281,208.923218 115.377502,209.640244 114.615639,210.425751 
	C113.978706,198.063385 113.886627,185.633743 107.353546,172.876083 
	C105.373314,191.381882 101.497337,207.773987 90.744484,221.840500 
	C98.603119,195.674118 97.669975,169.487686 91.964668,142.686050 
	C86.442383,150.608902 81.303482,157.967361 81.847687,167.891205 
	C81.985794,170.409760 80.444641,173.355423 78.895676,175.556305 
	C76.296379,179.249573 70.555992,178.995728 68.338371,175.082153 
	C65.290428,169.703262 64.239426,163.992538 67.916344,157.590302 
	C70.763420,161.733154 73.329544,165.467194 76.031418,169.398773 
	C79.302567,167.294785 79.862045,164.692719 78.596786,161.234802 
z"/>
<path fill="#DCE0E8" opacity="1.000000" stroke="none" 
	d="
M149.987411,113.160690 
	C149.618652,110.073242 150.379974,109.086044 153.364166,108.858238 
	C158.367050,108.476349 161.800842,109.883957 164.412750,114.312202 
	C166.500549,117.851875 169.354706,120.939545 172.557907,125.129288 
	C172.557907,119.299271 172.557907,114.487595 172.557907,109.336868 
	C176.130325,109.336868 179.213760,109.336868 182.677261,109.336868 
	C182.677261,119.159485 182.677261,129.213608 182.677261,139.618347 
	C177.246979,140.546371 172.051453,141.033569 168.550964,134.743179 
	C166.645050,131.318268 163.737381,128.450806 160.498688,124.337723 
	C160.498688,130.109009 160.498688,134.743958 160.498688,139.687439 
	C156.870010,139.687439 153.782211,139.687439 149.987320,139.687439 
	C149.987320,131.126633 149.987320,122.384659 149.987411,113.160690 
z"/>
<path fill="#D8DCE5" opacity="1.000000" stroke="none" 
	d="
M290.099182,118.962784 
	C289.223785,115.524460 288.430664,112.491089 287.570099,109.199829 
	C291.408051,109.199829 294.849915,109.199829 298.484924,109.199829 
	C300.283783,116.366440 302.045532,123.385162 303.807281,130.403900 
	C304.096191,130.412140 304.385101,130.420380 304.674042,130.428619 
	C306.451202,123.375755 308.228394,116.322884 310.033600,109.158798 
	C313.674988,109.158798 317.126526,109.158798 321.030304,109.158798 
	C318.216644,119.431984 315.470734,129.457733 312.655151,139.737823 
	C307.221375,139.737823 301.779022,139.737823 295.927032,139.737823 
	C294.044281,133.062805 292.112854,126.215271 290.099182,118.962784 
z"/>
<path fill="#D8DDE6" opacity="1.000000" stroke="none" 
	d="
M213.640305,132.295914 
	C215.363510,134.759979 216.863068,136.938995 218.969559,139.999954 
	C215.097687,139.999954 211.619720,140.787994 208.793991,139.768387 
	C206.200897,138.832703 204.311050,135.948029 201.669586,133.515182 
	C198.946335,141.342468 192.650757,140.595016 185.544617,139.595963 
	C189.140854,134.485138 192.529282,129.669632 196.147812,124.527100 
	C192.709290,119.622330 189.244873,114.680626 185.487976,109.321724 
	C192.501389,108.645828 198.947327,107.329048 202.084564,117.081779 
	C205.399277,107.795151 211.702393,108.437706 218.735123,109.305260 
	C215.140213,114.507568 211.702271,119.482719 208.217377,124.525803 
	C210.004440,127.098526 211.710556,129.554688 213.640305,132.295914 
z"/>
<path fill="#D4D9E3" opacity="1.000000" stroke="none" 
	d="
M229.048340,108.980774 
	C235.815903,108.980774 242.089401,108.980774 248.591888,108.980774 
	C248.591888,111.730629 248.591888,113.998329 248.591888,116.801727 
	C245.941605,116.801727 243.224152,116.801727 239.884415,116.801727 
	C239.884415,124.664978 239.884415,132.030731 239.884415,139.700012 
	C236.068939,139.700012 232.865219,139.700012 229.278610,139.700012 
	C229.278610,132.310242 229.278610,125.052719 229.278610,117.321442 
	C226.180008,117.321442 223.442841,117.321442 220.377533,117.321442 
	C220.377533,114.449867 220.377533,112.046867 220.377533,108.980774 
	C223.027893,108.980774 225.791077,108.980774 229.048340,108.980774 
z"/>
<path fill="#DDE1E9" opacity="1.000000" stroke="none" 
	d="
M263.990723,115.100792 
	C263.990723,112.967781 263.990723,111.321228 263.990723,109.338242 
	C267.380524,109.338242 270.569824,109.338242 274.135834,109.338242 
	C274.135834,116.723549 274.135834,123.973595 274.135834,131.753265 
	C279.531647,131.753265 284.581512,131.753265 289.906158,131.753265 
	C289.906158,134.673080 289.906158,137.067535 289.906158,139.735413 
	C281.465851,139.735413 273.057709,139.735413 263.990723,139.735413 
	C263.990723,131.727127 263.990723,123.657188 263.990723,115.100792 
z"/>
<path fill="#DDE1E9" opacity="1.000000" stroke="none" 
	d="
M325.222504,139.993195 
	C324.161682,139.382523 323.083527,138.782166 323.076721,138.169952 
	C322.970367,128.580017 323.002167,118.988564 323.002167,109.201920 
	C326.528320,109.201920 329.602142,109.201920 333.050110,109.201920 
	C333.050110,116.637375 333.050110,123.885063 333.050110,131.671753 
	C338.444702,131.671753 343.490784,131.671753 348.860107,131.671753 
	C348.860107,134.595215 348.860107,136.994949 348.860107,139.998001 
	C341.218567,139.998001 333.461090,139.998001 325.222504,139.993195 
z"/>
<path fill="#D0D6D7" opacity="1.000000" stroke="none" 
	d="
M254.841461,171.021088 
	C252.261002,171.021194 250.122757,171.021194 248.023193,171.021194 
	C247.754150,168.146103 247.754150,168.146103 256.877563,164.884781 
	C255.293121,164.708572 253.711014,164.507126 252.123764,164.361465 
	C248.922180,164.067657 246.742172,162.031647 247.443283,159.178223 
	C247.934662,157.178375 250.352737,154.814346 252.377716,154.228638 
	C255.289185,153.386536 258.625610,154.013641 261.744812,154.013641 
	C262.349213,157.009598 262.349213,157.009598 252.803177,159.354477 
	C257.241089,160.543839 263.274597,158.958969 262.878174,165.822021 
	C262.614014,170.394440 259.148590,171.221725 254.841461,171.021088 
z"/>
<path fill="#D5DADA" opacity="1.000000" stroke="none" 
	d="
M211.509094,166.467697 
	C211.501205,168.008606 211.501205,169.157669 211.501205,170.695267 
	C209.881180,170.804306 208.501022,170.897186 206.855469,171.007935 
	C206.855469,165.923828 206.855469,161.175797 206.855469,156.444397 
	C213.074081,153.997559 213.839371,160.563812 217.785736,162.935638 
	C217.947983,160.708878 218.094330,158.700516 218.267365,156.325592 
	C219.617325,156.193924 221.033325,156.055801 222.761963,155.887192 
	C222.761963,160.895187 222.761963,165.643112 222.761963,170.538971 
	C218.499649,172.574890 216.682022,169.245819 214.499420,166.670776 
	C213.058716,164.971039 213.031647,164.993988 211.509094,166.467697 
z"/>
<path fill="#CFD4D6" opacity="1.000000" stroke="none" 
	d="
M407.983398,170.288086 
	C406.437592,170.785736 405.024139,170.885162 403.394928,170.999771 
	C403.394928,165.894272 403.394928,161.287720 403.394928,156.045563 
	C407.091553,156.045563 410.704803,155.766632 414.253571,156.125534 
	C417.668793,156.470932 419.017456,158.665237 418.164764,162.165329 
	C417.529877,164.771469 417.163391,167.443024 416.515930,170.963196 
	C415.896576,170.703537 413.939606,170.315369 412.592163,169.194473 
	C411.289948,168.111145 410.615875,166.272827 409.665863,164.766159 
	C409.263428,164.908142 408.860962,165.050125 408.458527,165.192123 
	C408.344269,166.758041 408.229980,168.323959 407.983398,170.288086 
z"/>
<path fill="#CFD4D6" opacity="1.000000" stroke="none" 
	d="
M401.113342,169.882233 
	C396.707642,170.628571 392.343048,170.968430 387.643738,171.334351 
	C387.643738,165.960663 387.643738,161.225800 387.643738,156.231522 
	C392.077911,156.231522 396.341736,156.231522 400.909576,156.231522 
	C400.964569,157.232742 401.024261,158.319717 401.110657,159.892517 
	C398.470734,159.892517 396.074554,159.892517 393.678375,159.892517 
	C393.665253,160.197510 393.652161,160.502502 393.639038,160.807510 
	C395.950684,160.938553 398.262299,161.069611 400.827545,161.215042 
	C400.928650,162.275375 401.032684,163.366043 401.173737,164.844894 
	C398.163605,164.987823 395.374329,165.120270 392.585052,165.252716 
	C392.580200,165.740768 392.575348,166.228836 392.570465,166.716888 
	C394.552368,166.825958 396.594330,166.686172 398.491913,167.144470 
	C399.507843,167.389832 400.274994,168.665207 401.113342,169.882233 
z"/>
<path fill="#CFD4D6" opacity="1.000000" stroke="none" 
	d="
M165.018463,161.507751 
	C166.775330,157.643341 169.422180,155.298752 173.380478,156.152237 
	C181.921127,157.993759 178.761658,165.283340 179.222275,170.684448 
	C168.412994,171.821732 165.013138,169.814896 165.018463,161.507751 
z"/>
<path fill="#D2D7D8" opacity="1.000000" stroke="none" 
	d="
M309.312714,170.995667 
	C307.370300,168.900314 305.823181,166.821960 303.433228,163.611359 
	C303.154999,166.873627 303.008270,168.593750 302.828094,170.706100 
	C301.525604,170.825302 300.115814,170.954315 298.353271,171.115601 
	C298.353271,166.147903 298.353271,161.422760 298.353271,156.033798 
	C301.793976,156.033798 305.398376,155.724976 308.927399,156.109024 
	C313.746887,156.633530 314.401154,160.426392 310.606476,165.418961 
	C311.328918,166.989624 312.081696,168.626190 313.007202,170.638321 
	C311.776672,170.777939 310.742340,170.895294 309.312714,170.995667 
z"/>
<path fill="#CDD2D4" opacity="1.000000" stroke="none" 
	d="
M295.279938,166.930817 
	C292.841431,170.461334 289.662628,172.358185 286.208496,170.317078 
	C283.982727,169.001831 281.545227,165.943344 281.504089,163.625305 
	C281.463196,161.320206 283.831635,158.132034 286.025299,156.896240 
	C287.748505,155.925476 291.203857,156.676102 293.195862,157.844757 
	C296.390991,159.719269 296.835358,163.111694 295.279938,166.930817 
z"/>
<path fill="#D3D8D8" opacity="1.000000" stroke="none" 
	d="
M158.130829,165.016052 
	C156.506500,165.175919 155.331879,165.335663 154.157257,165.495422 
	C154.151077,165.908310 154.144897,166.321198 154.138702,166.734085 
	C156.124954,166.841339 158.182144,166.670929 160.072372,167.153931 
	C161.322891,167.473480 162.333817,168.730576 163.452011,169.567947 
	C163.180954,169.982407 162.909897,170.396881 162.638855,170.811340 
	C158.360504,170.811340 154.082169,170.811340 149.449280,170.811340 
	C149.449280,166.078934 149.449280,161.361603 149.449280,156.311218 
	C153.789459,156.311218 158.175995,156.311218 162.982697,156.311218 
	C162.764694,163.044449 156.824188,157.922150 154.811737,160.840225 
	C157.263016,160.958572 159.748489,161.078568 162.228867,161.198334 
	C163.061676,164.863052 163.061676,164.863052 158.130829,165.016052 
z"/>
<path fill="#D3D8D8" opacity="1.000000" stroke="none" 
	d="
M236.814163,165.009155 
	C234.319199,165.013916 232.273285,165.013916 229.845657,165.013916 
	C231.840271,169.646469 238.913239,163.546829 239.025970,170.761719 
	C234.393234,170.761719 229.992508,170.761719 225.343414,170.761719 
	C225.343414,165.968704 225.343414,161.373398 225.343414,156.379898 
	C229.647949,156.379898 234.022659,156.379898 239.181870,156.379898 
	C238.695511,162.764297 232.754364,158.171967 230.349197,160.986908 
	C233.307266,160.986908 235.897781,160.986908 239.970673,160.986908 
	C238.653595,162.941269 237.958405,163.972839 236.814163,165.009155 
z"/>
<path fill="#D2D7D8" opacity="1.000000" stroke="none" 
	d="
M431.809937,156.845703 
	C433.374847,161.634094 434.778107,166.040436 436.044708,170.017776 
	C430.599213,170.017776 425.228516,170.017776 419.550049,170.017776 
	C420.910309,165.736053 422.436157,160.933090 424.060730,155.819336 
	C426.766632,156.049118 429.207428,156.256393 431.809937,156.845703 
z"/>
<path fill="#D1D6D7" opacity="1.000000" stroke="none" 
	d="
M368.217346,167.685608 
	C368.216339,163.741394 368.216339,160.258591 368.216339,156.382721 
	C369.800812,156.222672 371.174011,156.083969 372.893829,155.910248 
	C373.078644,157.631790 373.230255,159.044281 373.412781,160.744537 
	C375.435425,160.744537 377.362305,160.744537 379.638519,160.744537 
	C379.809570,159.507401 380.005554,158.089798 380.254639,156.288300 
	C381.539612,156.174179 382.953857,156.048584 384.690155,155.894394 
	C384.690155,160.911667 384.690155,165.663467 384.690155,170.717728 
	C383.295105,170.717728 381.906189,170.717728 380.150940,170.717728 
	C380.054504,168.964050 379.958221,167.213516 379.850250,165.249863 
	C377.689240,165.249863 375.756042,165.249863 373.522156,165.249863 
	C373.326630,167.000092 373.131256,168.749069 372.899994,170.819107 
	C370.739868,170.843903 368.075348,172.277405 368.217346,167.685608 
z"/>
<path fill="#D4D8D9" opacity="1.000000" stroke="none" 
	d="
M452.932831,157.860031 
	C452.558105,164.331360 452.218567,164.589630 442.804413,165.303726 
	C442.633575,166.964172 442.455078,168.699432 442.247620,170.716003 
	C440.787323,170.716003 439.388977,170.716003 437.829163,170.716003 
	C437.829163,165.872574 437.829163,161.121948 437.829163,155.006577 
	C442.934296,156.100525 447.590332,157.098251 452.624634,157.989471 
	C453.002899,157.882950 452.932831,157.860031 452.932831,157.860031 
z"/>
<path fill="#CED3D5" opacity="1.000000" stroke="none" 
	d="
M336.023956,160.209305 
	C337.096100,160.641708 338.835419,160.469376 339.846710,161.245560 
	C341.575958,162.572800 344.054413,164.549026 343.981628,166.151062 
	C343.905884,167.818176 341.428619,170.221512 339.556763,170.761490 
	C336.821503,171.550552 333.689514,170.964371 330.757172,170.964371 
	C330.350952,167.206253 330.349579,167.170242 333.352539,167.055542 
	C335.217163,166.984344 337.086792,167.042328 338.954163,167.042328 
	C338.990204,166.499329 339.026276,165.956329 339.062347,165.413330 
	C337.454498,165.265411 335.603790,165.564896 334.299835,164.857117 
	C332.642975,163.957825 330.164581,162.071899 330.319641,160.917542 
	C330.555298,159.163498 332.492371,156.748627 334.172058,156.279129 
	C336.931854,155.507690 340.064484,156.070099 343.221313,156.070099 
	C344.444092,158.672729 344.067719,160.114029 340.836487,159.981033 
	C339.348755,159.919815 337.854736,160.009842 336.023956,160.209305 
z"/>
<path fill="#CED3D5" opacity="1.000000" stroke="none" 
	d="
M192.092743,163.907593 
	C192.137894,161.134598 192.137894,158.833374 192.137894,156.265198 
	C193.947998,156.265198 195.331711,156.265198 197.080643,156.265198 
	C196.632935,161.007645 199.205414,166.529449 194.097824,169.585159 
	C191.830246,170.941788 187.600433,171.011017 185.223648,169.790558 
	C179.766083,166.988083 182.513412,161.276459 181.775574,156.326492 
	C183.394669,156.181931 184.784973,156.057800 186.885971,155.870224 
	C186.885971,158.649597 186.685532,161.111252 186.975327,163.513763 
	C187.108887,164.620911 188.201691,165.612381 188.859558,166.656296 
	C189.922241,165.897308 190.984924,165.138336 192.092743,163.907593 
z"/>
<path fill="#D2D7D8" opacity="1.000000" stroke="none" 
	d="
M279.861023,159.288757 
	C279.870148,166.747849 274.271545,164.451309 270.126648,165.261581 
	C269.963776,166.936661 269.795776,168.664612 269.594635,170.733795 
	C268.152313,170.820221 266.770233,170.903046 265.122711,171.001770 
	C265.122711,165.974030 265.122711,161.254883 265.122711,155.852539 
	C270.098816,157.156250 275.693146,153.350250 279.861023,159.288757 
z"/>
<path fill="#CED4D5" opacity="1.000000" stroke="none" 
	d="
M453.014282,157.917999 
	C455.414215,154.521286 457.717499,155.032135 461.346649,159.462784 
	C464.261597,158.009720 467.107361,156.591141 469.953125,155.172562 
	C470.091156,155.549744 470.229187,155.926910 470.367218,156.304077 
	C468.047852,160.874985 465.728516,165.445892 463.038605,170.747101 
	C462.860565,170.747101 461.450989,170.747101 460.041412,170.747101 
	C460.455048,170.440536 460.868683,170.133972 461.282318,169.827393 
	C458.744476,165.780426 456.206665,161.733444 453.300842,157.773254 
	C452.932831,157.860031 453.002899,157.882950 453.014282,157.917999 
z"/>
<path fill="#D1D6D7" opacity="1.000000" stroke="none" 
	d="
M364.667419,155.984802 
	C365.902893,156.863434 366.676361,157.737823 367.996948,159.230743 
	C365.413879,159.741318 363.899963,160.040573 362.150024,160.386459 
	C362.150024,163.775314 362.150024,167.050552 362.150024,170.692642 
	C360.518066,170.823410 359.134888,170.934250 357.269409,171.083740 
	C357.269409,167.370590 357.269409,163.961700 357.269409,161.436127 
	C354.954346,159.883774 353.339844,158.801178 351.725342,157.718582 
	C351.960907,157.139252 352.196472,156.559906 352.432007,155.980576 
	C356.356476,155.980576 360.280945,155.980576 364.667419,155.984802 
z"/>
<path fill="#D1D6D7" opacity="1.000000" stroke="none" 
	d="
M324.082336,164.150803 
	C324.082245,166.573914 324.082245,168.533997 324.082245,170.751266 
	C322.362488,170.751266 320.983246,170.751266 319.280029,170.751266 
	C319.280029,167.337494 319.280029,164.072372 319.280029,161.354004 
	C317.158539,159.915222 315.489899,158.783569 313.821259,157.651917 
	C314.080475,157.180817 314.339722,156.709732 314.598938,156.238647 
	C319.181732,156.238647 323.764557,156.238647 329.915222,156.238647 
	C328.573822,157.907700 327.728943,159.818405 326.932953,159.798279 
	C323.741455,159.717484 324.004791,161.660629 324.082336,164.150803 
z"/>
<path fill="#CCD1D4" opacity="1.000000" stroke="none" 
	d="
M204.193695,160.345703 
	C204.193726,164.076263 204.193726,167.359283 204.193726,170.782318 
	C202.437592,170.782318 201.021606,170.782318 199.437378,170.782318 
	C199.437378,165.803467 199.437378,161.068237 199.437378,156.154694 
	C200.963791,156.154694 202.249161,156.154694 203.957260,156.154694 
	C204.036850,157.414780 204.115265,158.656464 204.193695,160.345703 
z"/>
</svg>